<?xml version="1.0" encoding="UTF-8" standalone="no"?>
<!DOCTYPE svg PUBLIC "-//W3C//DTD SVG 1.1//EN" "http://www.w3.org/Graphics/SVG/1.1/DTD/svg11.dtd">
<svg width="100%" height="100%" viewBox="0 0 112 128" version="1.1" xmlns="http://www.w3.org/2000/svg" xmlns:xlink="http://www.w3.org/1999/xlink" xml:space="preserve" xmlns:serif="http://www.serif.com/" style="fill-rule:evenodd;clip-rule:evenodd;stroke-linejoin:round;stroke-miterlimit:2;">
    <g transform="matrix(1,0,0,1,0,-4.36)">
        <rect x="17.02" y="46.71" width="78.23" height="38.94"/>
    </g>
    <g transform="matrix(1,0,0,1,0,-59.8)">
        <path d="M17.02,100.45L17.02,87.35L90.88,87.35C90.88,87.35 95.259,88.026 95.25,92.85C95.241,97.674 95.25,100.45 95.25,100.45L17.02,100.45Z" style="fill:rgb(70,79,136);"/>
    </g>
    <g transform="matrix(1,0,0,1,0,-86.4274)">
        <path d="M17.02,113.977C17.02,113.977 16.972,109.603 17.02,105.547C17.068,101.492 19.79,100.577 19.79,100.577C19.79,100.577 45.548,100.45 45.79,100.577C46.032,100.705 47.051,100.51 47.59,101.247C48.129,101.984 53.05,107.467 53.05,107.467L75.77,101.977L95.2,104.977L60.21,113.977L17.02,113.977Z"/>
    </g>
    <g transform="matrix(1,0,0,1,0,22.7383)">
        <rect x="29.024" y="20.635" width="55.973" height="63.992" style="fill:white;fill-opacity:0;"/>
    </g>
    <g transform="matrix(1,0,0,1,0,-44.7)">
        <rect x="17.02" y="85.35" width="78.23" height="2" style="fill:white;"/>
    </g>
    <g transform="matrix(1,0,0,1,0,36.58)">
        <rect x="17.02" y="44.71" width="78.23" height="2" style="fill:white;"/>
    </g>
    <g transform="matrix(1,0,0,1,0,54.4517)">
        <path d="M16.963,28.81C16.963,28.81 16.939,34.978 17.02,39.548C17.101,44.118 21.05,44.738 21.05,44.738L90.93,44.738C90.93,44.738 95.074,44.409 95.25,39.548C95.426,34.688 95.25,28.838 95.25,28.838L16.963,28.81Z" style="fill:rgb(70,79,136);"/>
    </g>
    <g transform="matrix(1,0,0,1,0,131.949)">
        <rect x="12.57" y="-33.974" width="86.5" height="64" style="fill:white;fill-opacity:0;"/>
    </g>
    <g>
        <g transform="matrix(31,0,0,31,30.5271,72.3733)">
            <rect x="0.068" y="-0.716" width="0.145" height="0.716" style="fill:white;fill-rule:nonzero;"/>
        </g>
        <g transform="matrix(31,0,0,31,40.1377,72.3733)">
            <path d="M0.073,-0L0.073,-0.716L0.305,-0.716C0.393,-0.716 0.45,-0.712 0.477,-0.705C0.518,-0.694 0.552,-0.671 0.58,-0.635C0.607,-0.599 0.621,-0.553 0.621,-0.496C0.621,-0.452 0.613,-0.415 0.597,-0.385C0.581,-0.355 0.561,-0.331 0.536,-0.314C0.512,-0.297 0.487,-0.286 0.461,-0.28C0.427,-0.273 0.377,-0.27 0.312,-0.27L0.217,-0.27L0.217,-0L0.073,-0ZM0.217,-0.595L0.217,-0.392L0.296,-0.392C0.353,-0.392 0.391,-0.395 0.411,-0.403C0.43,-0.41 0.445,-0.422 0.456,-0.438C0.467,-0.454 0.472,-0.472 0.472,-0.494C0.472,-0.52 0.465,-0.541 0.449,-0.558C0.434,-0.575 0.415,-0.586 0.391,-0.59C0.374,-0.593 0.339,-0.595 0.287,-0.595L0.217,-0.595Z" style="fill:white;fill-rule:nonzero;"/>
        </g>
        <g transform="matrix(31,0,0,31,61.8123,72.3733)">
            <path d="M0.073,-0L0.073,-0.716L0.305,-0.716C0.393,-0.716 0.45,-0.712 0.477,-0.705C0.518,-0.694 0.552,-0.671 0.58,-0.635C0.607,-0.599 0.621,-0.553 0.621,-0.496C0.621,-0.452 0.613,-0.415 0.597,-0.385C0.581,-0.355 0.561,-0.331 0.536,-0.314C0.512,-0.297 0.487,-0.286 0.461,-0.28C0.427,-0.273 0.377,-0.27 0.312,-0.27L0.217,-0.27L0.217,-0L0.073,-0ZM0.217,-0.595L0.217,-0.392L0.296,-0.392C0.353,-0.392 0.391,-0.395 0.411,-0.403C0.43,-0.41 0.445,-0.422 0.456,-0.438C0.467,-0.454 0.472,-0.472 0.472,-0.494C0.472,-0.52 0.465,-0.541 0.449,-0.558C0.434,-0.575 0.415,-0.586 0.391,-0.59C0.374,-0.593 0.339,-0.595 0.287,-0.595L0.217,-0.595Z" style="fill:white;fill-rule:nonzero;"/>
        </g>
        <g transform="matrix(12.8,0,0,12.8,17.1203,113.973)">
            <path d="M0.079,-0L0.079,-0.716L0.597,-0.716L0.597,-0.631L0.174,-0.631L0.174,-0.412L0.57,-0.412L0.57,-0.328L0.174,-0.328L0.174,-0.084L0.613,-0.084L0.613,-0L0.079,-0Z" style="fill-rule:nonzero;"/>
        </g>
        <g transform="matrix(12.8,0,0,12.8,25.6578,113.973)">
            <path d="M0.21,-0L0.013,-0.519L0.105,-0.519L0.217,-0.208C0.229,-0.174 0.24,-0.14 0.25,-0.104C0.258,-0.131 0.269,-0.164 0.283,-0.202L0.398,-0.519L0.488,-0.519L0.292,-0L0.21,-0Z" style="fill-rule:nonzero;"/>
        </g>
        <g transform="matrix(12.8,0,0,12.8,32.0577,113.973)">
            <path d="M0.421,-0.167L0.512,-0.156C0.497,-0.103 0.471,-0.062 0.432,-0.032C0.393,-0.003 0.344,0.012 0.284,0.012C0.208,0.012 0.148,-0.012 0.103,-0.058C0.059,-0.105 0.037,-0.171 0.037,-0.255C0.037,-0.342 0.059,-0.41 0.104,-0.458C0.149,-0.506 0.207,-0.53 0.279,-0.53C0.348,-0.53 0.405,-0.507 0.449,-0.459C0.493,-0.412 0.515,-0.346 0.515,-0.26C0.515,-0.255 0.514,-0.247 0.514,-0.237L0.127,-0.237C0.131,-0.18 0.147,-0.136 0.176,-0.106C0.205,-0.076 0.241,-0.061 0.284,-0.061C0.316,-0.061 0.344,-0.069 0.367,-0.086C0.389,-0.103 0.408,-0.13 0.421,-0.167ZM0.132,-0.309L0.422,-0.309C0.418,-0.353 0.407,-0.385 0.389,-0.407C0.361,-0.441 0.324,-0.458 0.28,-0.458C0.239,-0.458 0.205,-0.444 0.178,-0.417C0.15,-0.39 0.135,-0.354 0.132,-0.309Z" style="fill-rule:nonzero;"/>
        </g>
        <g transform="matrix(12.8,0,0,12.8,39.1765,113.973)">
            <path d="M0.065,-0L0.065,-0.519L0.144,-0.519L0.144,-0.44C0.164,-0.477 0.183,-0.501 0.2,-0.513C0.217,-0.524 0.236,-0.53 0.256,-0.53C0.286,-0.53 0.316,-0.521 0.347,-0.502L0.316,-0.42C0.295,-0.433 0.273,-0.439 0.252,-0.439C0.233,-0.439 0.215,-0.434 0.2,-0.422C0.185,-0.411 0.174,-0.395 0.167,-0.374C0.158,-0.343 0.153,-0.309 0.153,-0.271L0.153,-0L0.065,-0Z" style="fill-rule:nonzero;"/>
        </g>
        <g transform="matrix(12.8,0,0,12.8,43.4389,113.973)">
            <path d="M0.062,0.2L0.052,0.117C0.071,0.122 0.088,0.125 0.103,0.125C0.122,0.125 0.138,0.122 0.149,0.115C0.161,0.109 0.171,0.1 0.178,0.088C0.184,0.079 0.193,0.057 0.205,0.022C0.207,0.018 0.209,0.01 0.213,0.001L0.016,-0.519L0.111,-0.519L0.219,-0.218C0.233,-0.18 0.245,-0.14 0.256,-0.098C0.266,-0.139 0.278,-0.178 0.292,-0.216L0.403,-0.519L0.491,-0.519L0.294,0.009C0.273,0.066 0.256,0.105 0.245,0.126C0.229,0.155 0.211,0.177 0.191,0.19C0.171,0.204 0.147,0.21 0.119,0.21C0.102,0.21 0.083,0.207 0.062,0.2Z" style="fill-rule:nonzero;"/>
        </g>
        <g transform="matrix(12.8,0,0,12.8,49.8389,113.973)">
            <path d="M0.162,-0L0.003,-0.519L0.094,-0.519L0.176,-0.219L0.207,-0.108C0.208,-0.113 0.217,-0.149 0.234,-0.215L0.316,-0.519L0.407,-0.519L0.484,-0.218L0.51,-0.119L0.54,-0.219L0.629,-0.519L0.714,-0.519L0.552,-0L0.461,-0L0.378,-0.311L0.358,-0.399L0.253,-0L0.162,-0Z" style="fill-rule:nonzero;"/>
        </g>
        <g transform="matrix(12.8,0,0,12.8,59.0826,113.973)">
            <path d="M0.066,-0L0.066,-0.716L0.154,-0.716L0.154,-0.459C0.195,-0.507 0.247,-0.53 0.309,-0.53C0.347,-0.53 0.381,-0.523 0.409,-0.508C0.438,-0.492 0.458,-0.472 0.47,-0.445C0.482,-0.418 0.488,-0.379 0.488,-0.329L0.488,-0L0.4,-0L0.4,-0.329C0.4,-0.373 0.391,-0.405 0.372,-0.425C0.353,-0.445 0.326,-0.455 0.291,-0.455C0.265,-0.455 0.24,-0.448 0.218,-0.434C0.195,-0.421 0.178,-0.403 0.168,-0.379C0.159,-0.356 0.154,-0.324 0.154,-0.284L0.154,-0L0.066,-0Z" style="fill-rule:nonzero;"/>
        </g>
        <g transform="matrix(12.8,0,0,12.8,66.2014,113.973)">
            <path d="M0.421,-0.167L0.512,-0.156C0.497,-0.103 0.471,-0.062 0.432,-0.032C0.393,-0.003 0.344,0.012 0.284,0.012C0.208,0.012 0.148,-0.012 0.103,-0.058C0.059,-0.105 0.037,-0.171 0.037,-0.255C0.037,-0.342 0.059,-0.41 0.104,-0.458C0.149,-0.506 0.207,-0.53 0.279,-0.53C0.348,-0.53 0.405,-0.507 0.449,-0.459C0.493,-0.412 0.515,-0.346 0.515,-0.26C0.515,-0.255 0.514,-0.247 0.514,-0.237L0.127,-0.237C0.131,-0.18 0.147,-0.136 0.176,-0.106C0.205,-0.076 0.241,-0.061 0.284,-0.061C0.316,-0.061 0.344,-0.069 0.367,-0.086C0.389,-0.103 0.408,-0.13 0.421,-0.167ZM0.132,-0.309L0.422,-0.309C0.418,-0.353 0.407,-0.385 0.389,-0.407C0.361,-0.441 0.324,-0.458 0.28,-0.458C0.239,-0.458 0.205,-0.444 0.178,-0.417C0.15,-0.39 0.135,-0.354 0.132,-0.309Z" style="fill-rule:nonzero;"/>
        </g>
        <g transform="matrix(12.8,0,0,12.8,73.3201,113.973)">
            <path d="M0.065,-0L0.065,-0.519L0.144,-0.519L0.144,-0.44C0.164,-0.477 0.183,-0.501 0.2,-0.513C0.217,-0.524 0.236,-0.53 0.256,-0.53C0.286,-0.53 0.316,-0.521 0.347,-0.502L0.316,-0.42C0.295,-0.433 0.273,-0.439 0.252,-0.439C0.233,-0.439 0.215,-0.434 0.2,-0.422C0.185,-0.411 0.174,-0.395 0.167,-0.374C0.158,-0.343 0.153,-0.309 0.153,-0.271L0.153,-0L0.065,-0Z" style="fill-rule:nonzero;"/>
        </g>
        <g transform="matrix(12.8,0,0,12.8,77.5826,113.973)">
            <path d="M0.421,-0.167L0.512,-0.156C0.497,-0.103 0.471,-0.062 0.432,-0.032C0.393,-0.003 0.344,0.012 0.284,0.012C0.208,0.012 0.148,-0.012 0.103,-0.058C0.059,-0.105 0.037,-0.171 0.037,-0.255C0.037,-0.342 0.059,-0.41 0.104,-0.458C0.149,-0.506 0.207,-0.53 0.279,-0.53C0.348,-0.53 0.405,-0.507 0.449,-0.459C0.493,-0.412 0.515,-0.346 0.515,-0.26C0.515,-0.255 0.514,-0.247 0.514,-0.237L0.127,-0.237C0.131,-0.18 0.147,-0.136 0.176,-0.106C0.205,-0.076 0.241,-0.061 0.284,-0.061C0.316,-0.061 0.344,-0.069 0.367,-0.086C0.389,-0.103 0.408,-0.13 0.421,-0.167ZM0.132,-0.309L0.422,-0.309C0.418,-0.353 0.407,-0.385 0.389,-0.407C0.361,-0.441 0.324,-0.458 0.28,-0.458C0.239,-0.458 0.205,-0.444 0.178,-0.417C0.15,-0.39 0.135,-0.354 0.132,-0.309Z" style="fill-rule:nonzero;"/>
        </g>
        <g transform="matrix(6.8,0,0,6.8,84.7013,109.723)">
            <path d="M0.259,-0L0.259,-0.631L0.023,-0.631L0.023,-0.716L0.591,-0.716L0.591,-0.631L0.354,-0.631L0.354,-0L0.259,-0Z" style="fill-rule:nonzero;"/>
        </g>
        <g transform="matrix(6.8,0,0,6.8,88.855,109.723)">
            <path d="M0.074,-0L0.074,-0.716L0.217,-0.716L0.386,-0.209C0.402,-0.162 0.413,-0.126 0.42,-0.103C0.429,-0.129 0.441,-0.167 0.458,-0.218L0.63,-0.716L0.757,-0.716L0.757,-0L0.666,-0L0.666,-0.599L0.458,-0L0.373,-0L0.166,-0.609L0.166,-0L0.074,-0Z" style="fill-rule:nonzero;"/>
        </g>
    </g>
</svg>
