<?xml version="1.0" encoding="UTF-8"?>
<svg xmlns="http://www.w3.org/2000/svg"
    viewbox="0 0 888 200"
    preserveaspectratio="xMidYMid meet">
    
    <path d="M815.5886,6.3943h-5.81v-3.5H825.15v3.5h-5.8108V25.3881h-3.75Zm13.1859-3.5h6.4365l5.6222,18.9987h.3768l5.6222-18.9987h6.4365V25.3881h-3.6226V6.3943h-.3768l-5.6857,18.9938H838.46L832.7738,6.3943h-.3764V25.3881h-3.6229Z" transform="translate(0)" style="fill:#231f20"></path><path d="M584.5261,86.75c0-29.1692-11.2233-54.9922-41.0961-54.9922-29.93,0-41.4613,25.823-41.4613,54.9922S513.5,141.77,543.43,141.77c29.8728,0,41.0961-25.85,41.0961-55.02m44.0495,0c0,49.8724-35.2726,86.7485-85.23,86.7485-50.8564,0-85.4266-35.3291-85.4266-86.7208C457.9187,38.1708,492.0383,0,543.3453,0c49.9577,0,85.23,36.905,85.23,86.75" transform="translate(0)" style="fill:#d92231"></path><path d="M288.5136,70.66H211.2569a52.8759,52.8759,0,0,1,4.8808-15.9772c6.933-13.8956,20.0134-22.7565,36.3564-22.7565,22.3762,0,36.0195,15.19,36.0195,37.7214Zm40.0963.6741c-2.0523-22.5306-10.3233-40.7013-24.2188-52.9664C291.0868,6.5251,273.2242.0847,251.0739.0847c-16.3287,0-36.9609,5.6546-52.1505,18.1148C180.85,33.1086,166.785,56.398,166.785,87.79c0,27.06,8.8183,48.8324,24.613,63.5426,15.4431,14.4585,37.3687,22.3071,64.4719,22.3071,21.8548,0,48.2683-8.2133,59.52-15.2185,3.9935-2.4181,5.2592-3.5152,4.2613-7.51l-7.1031-20.0271c-.7876-3.2058-4.4715-4.0788-7.398-2.5882a144.0607,144.0607,0,0,1-13.7267,6.1887c-9.76,3.6293-19.9569,6.1033-29.5628,6.1033-20.2663,0-31.87-5.5134-40.6737-15.7513-5.5982-6.4693-8.8748-14.5991-9.8884-24.05H323.2665c4.0211,0,5.85-2.7853,5.85-7.5958V85.1455c0-3.9663-.1682-10.07-.5066-13.8114" transform="translate(0)" style="fill:#d92231"></path><path d="M368.8631,23.9935C381.521,7.6792,401.2947.2247,433.6427.2247A115.59,115.59,0,0,1,456.4268,2.504c3.7976.9006,4.417,3.9087,3.6852,7.8192l-3.8252,18.8461c-.8434,3.5169-1.8564,4.5293-4.6128,4.5293a17.42,17.42,0,0,1-2.2782-.1695C446.723,33.1645,439.1,32.348,435.95,32.348c-16.09,0-23.713,4.0223-29.4648,10.0427-6.6814,7.1722-6.8785,17.7214-6.8785,36.595v83.7962c0,5.5128-2.4181,8.6069-8.3256,8.6069H365.6843c-5.4569,0-7.82-2.7006-8.2709-8.6069V80.5051c0-29.9575,1.7314-43.9937,11.45-56.5116" transform="translate(0)" style="fill:#d92231"></path><path d="M715.8311,58.8732c5.7238-5.991,19.0714-22.4741,33.8537-50.3775,2.5172-4.7829,4.7811-5.9917,8.0865-5.9917h27.4529c2.5046,0,5.457,1.2088,3.854,5.9917-10.9139,32.375-35.8362,60.8132-49.6188,75.4975,15.0065,14.232,41.686,47.9312,54.2172,81.011,1.1121,2.9811.5629,6.3846-5.696,6.3846H755.1273c-3.3758,0-6.0908-.31-8.3545-5.9628-8.1431-20.2819-20.8713-41.6025-35.4145-55.6116-15.9214,16.8778-27.9875,37.6367-36.1174,55.6116-2.0246,4.4157-3.9934,5.9628-8.34,5.9628h-30.14c-2.04,0-4.0918-2.3347-2.757-5.9628,8.96-24.5853,26.8082-55.1893,52.4046-78.227-20.1395-24.247-39.4222-53.81-47.018-78.7033-1.1667-3.7417.8309-5.9917,3.6438-5.9917h35.3712c3.8684,0,5.8654,1.5747,7.75,5.9917,8.72,20.2806,20.6051,39.6049,29.6763,50.3775" transform="translate(0)" style="fill:#d92231"></path><path d="M82.23,58.8732c5.71-5.991,19.0436-22.4741,33.8817-50.3775,2.4891-4.7829,4.7114-5.9917,8.0584-5.9917h27.5106c2.4469,0,5.4,1.2088,3.7974,5.9917-10.9715,32.375-35.865,60.8132-49.6476,75.4975,15.0485,14.2609,41.7149,47.9583,54.3169,81.011,1.0688,2.9811.5053,6.3846-5.8083,6.3846H121.4564c-3.39,0-5.9634-.31-8.2836-5.9628-8.13-20.2819-20.9-41.6025-35.4144-55.5828C61.8515,126.6922,49.77,147.48,41.5977,165.426c-1.9543,4.4157-3.9231,5.9628-8.2835,5.9628H3.1878c-2.0247,0-4.0781-2.3347-2.7834-5.9628,8.9721-24.5853,26.8346-55.1893,52.3463-78.227C32.78,62.952,13.3993,33.3892,5.8048,8.4957,4.6513,4.754,6.6759,2.504,9.4474,2.504H44.82c3.8522,0,5.8228,1.5747,7.7771,5.9917,8.65,20.2806,20.5757,39.6049,29.6332,50.3775" transform="translate(0)" style="fill:#d92231"></path>
    
</svg> 